<svg width="48" height="58" viewBox="0 0 144 174" fill="none" xmlns="http://www.w3.org/2000/svg">
<g id="BGIS 2024 Logo">
<path d="M139.922 78.7953V78.7221C139.928 76.8754 139.758 41.0895 139.707 30.1641L139.659 15.7619L100.884 25.7978C100.831 25.0856 100.774 24.3536 100.72 23.5823C100.561 21.333 99.1672 19.4412 97.1694 18.5854C96.7103 16.7021 96.0359 14.9061 95.1518 13.2086C90.904 5.06159 82.0315 0 72 0C65.4484 0 59.2765 2.14794 54.6206 6.04407C50.7355 9.29554 48.0463 13.6562 46.8363 18.5826C44.8356 19.4356 43.4386 21.3302 43.2771 23.5823C43.2204 24.4015 43.1609 25.1813 43.1042 25.9329L4.34131 15.6859L4.2818 32.3486C4.14295 61.9215 4.07494 77.5229 4.07777 78.7221V78.7981C1.51039 80.2901 0 82.9504 0 86.3708V116.774C0 120.541 1.92979 122.458 3.08312 123.269C4.2988 124.122 5.78086 124.572 7.37343 124.572C8.34257 124.572 9.36272 124.4 10.4509 124.074L11.0205 125.158C15.4185 133.51 22.5595 139.731 36.9096 150.522L37.1477 150.699L71.9915 174L106.855 150.696L107.099 150.516C121.44 139.731 128.582 133.51 132.977 125.158L133.546 124.079C134.64 124.403 135.655 124.566 136.621 124.566C138.213 124.566 139.698 124.116 140.92 123.26C142.067 122.452 143.997 120.535 144 116.771V86.323C144 82.9251 142.487 80.2789 139.922 78.7953Z" fill="black"/>
<path d="M26.7478 110.871V103.439C26.7478 102.288 26.2122 101.426 25.1552 100.88C20.4144 98.4308 16.1666 95.9873 12.1738 93.4171V87.4856C14.6335 87.3392 17.1074 87.2013 19.5926 87.0718V93.2735L19.9043 93.2425C22.0919 93.0201 24.3079 92.8118 26.4899 92.6204L26.7478 92.5979V85.3686C26.7478 84.5156 26.4871 83.8288 25.9742 83.3248C25.2714 82.638 24.0954 82.3142 22.4547 82.3227C18.0368 82.3987 13.6502 82.4831 9.30888 82.5788C6.54597 82.6323 5.14326 83.9076 5.14326 86.3736V94.6501C5.14326 95.9591 5.65901 96.9641 6.67349 97.6369C10.6691 100.232 14.897 102.665 19.5926 105.063V111.11C17.1187 111.729 14.625 112.402 12.1738 113.114V105.981L11.8281 106.06C9.66877 106.555 7.48961 107.082 5.35579 107.628L5.14326 107.681V116.774C5.14326 117.892 5.44931 118.672 6.05006 119.094C6.39861 119.339 6.83785 119.463 7.37059 119.463C7.93734 119.463 8.61461 119.325 9.40523 119.043C13.7069 117.554 18.1219 116.197 22.5312 115.018C25.3678 114.255 26.745 112.898 26.7421 110.871H26.7478ZM21.1936 78.5222L21.4713 78.5279C23.6647 78.5645 25.8637 78.6011 28.074 78.632H28.3602V47.3053L28.142 47.2547C25.9515 46.7395 23.7327 46.1737 21.5507 45.5797L21.1936 45.4811V78.5222ZM15.0047 78.587C14.9991 76.5573 15.2201 29.7981 15.2201 29.7981L43.0532 37.1568C43.0532 37.0808 43.0504 37.0104 43.0532 36.9344C43.1977 34.8569 43.3423 33.0439 43.4839 31.3239L9.45907 22.3267L9.43357 29.7756C9.43357 30.0317 9.2097 76.6248 9.2182 78.7052C11.1338 78.663 13.0636 78.6236 15.0019 78.5842L15.0047 78.587ZM50.1291 86.1456L50.404 86.14V81.982H50.1206C43.9402 82.0299 37.7513 82.0946 31.7295 82.1763H31.4518V112.855L31.7947 112.782C37.8958 111.47 44.13 110.449 50.3275 109.742L50.5768 109.714V105.556L50.2679 105.587C46.4055 105.973 42.5091 106.468 38.6807 107.056V98.5941C41.9339 98.2591 45.238 97.9719 48.5054 97.7355L48.7661 97.7158V93.6029L48.4685 93.6198C45.2012 93.8056 41.9112 94.0336 38.6807 94.2954V86.4525C42.4638 86.3286 46.3149 86.2216 50.1291 86.14V86.1456ZM56.5419 78.9136V51.7195L56.2812 51.6969C54.1077 51.5168 51.903 51.3 49.7267 51.0438L49.4122 51.0072V66.1667C49.4122 66.2708 49.4178 66.3806 49.432 66.5017C45.8926 60.7673 42.6735 55.2552 39.6215 49.6954L39.5564 49.5771L39.4232 49.5546C37.4707 49.2168 35.5041 48.848 33.5856 48.4539L33.2456 48.3835V78.7052H33.5261C35.6883 78.7362 37.8561 78.7615 40.0296 78.784H40.3158V62.5886C40.3158 62.4986 40.313 62.4 40.3045 62.2987C43.3253 67.6474 46.5472 73.044 50.1206 78.7418L50.2028 78.8741H50.3586C52.3224 78.8882 54.2919 78.9023 56.2613 78.9107H56.5447L56.5419 78.9136ZM54.6206 81.9539V109.303L54.9266 109.275C57.1653 109.075 59.4323 108.912 61.6681 108.79L61.9345 108.776V85.8585C64.5869 85.8331 67.2393 85.8162 69.8945 85.8134V93.51C67.7777 93.5212 65.6354 93.5494 63.5242 93.5944L63.2465 93.6001V96.3167L65.8933 100.57C67.5085 103.166 69.1266 105.764 70.7446 108.379L70.8268 108.515H70.9855C73.329 108.503 75.698 108.534 78.0302 108.607L78.5545 108.624L78.2796 108.18C75.7916 104.154 73.2667 100.145 71.0904 96.7108C73.1703 96.6939 74.3974 96.6179 75.0406 96.4659C76.4688 96.1224 77.1943 95.3201 77.1943 94.0786V84.586C77.1943 82.8041 75.7264 81.9004 72.836 81.9004C66.9077 81.9004 60.869 81.9145 54.8983 81.9483H54.6178L54.6206 81.9539ZM82.0032 81.9201V108.774L82.2695 108.788C84.5054 108.909 86.7724 109.069 89.011 109.269L89.3171 109.297V81.9539H89.0365C86.7894 81.9398 84.5365 81.9286 82.2837 81.9229H82.0003L82.0032 81.9201ZM113.055 112.968L113.398 113.044V108.467L113.169 108.422C109.349 107.687 105.444 107.045 101.562 106.513V98.2309C104.809 98.5265 108.079 98.8756 111.29 99.2669L111.607 99.3063V94.8612L111.352 94.8359C108.116 94.5234 104.821 94.2447 101.562 94.0111V86.3399C105.316 86.4496 109.139 86.5848 112.934 86.7396L113.228 86.7509V82.1875H112.948C106.901 82.1003 100.714 82.0327 94.5652 81.9849H94.279V109.81L94.5283 109.84C100.729 110.575 106.96 111.625 113.053 112.965L113.055 112.968ZM100.502 141.86L71.9915 160.912L43.4953 141.86C30.8397 132.345 24.7472 127.1 21.2446 121.087C19.3489 121.625 17.4588 122.193 15.58 122.79C19.4452 130.132 25.9175 135.847 40.0069 146.44L40.1344 146.536L40.2676 146.626L71.9943 167.838L103.732 146.623L103.866 146.533L103.993 146.437C118.083 135.844 124.555 130.129 128.417 122.787C126.541 122.19 124.648 121.622 122.753 121.084C119.25 127.094 113.155 132.342 100.502 141.857V141.86ZM100.941 37.002L128.777 29.7981C128.777 29.7981 128.995 75.6058 128.995 77.2217C129.046 77.4187 129.097 77.6158 129.151 77.8157L129.352 78.5983C131.163 78.6349 132.971 78.6714 134.768 78.7109C134.77 78.7109 134.773 78.7109 134.776 78.7109C134.785 76.6277 134.561 30.0374 134.561 29.7812L134.535 22.3718L100.499 31.1803C100.646 32.9426 100.794 34.7977 100.941 36.9372C100.941 36.9598 100.941 36.9795 100.941 37.002ZM132.073 94.1152C134.207 94.3686 136.38 94.6416 138.537 94.9288L138.857 94.971V86.3258C138.857 83.8907 137.446 82.6295 134.666 82.5788C130.321 82.4831 125.938 82.3959 121.517 82.3227C119.916 82.3142 118.74 82.6351 118.04 83.3192C117.519 83.8316 117.252 84.5325 117.255 85.408V92.3417C117.255 93.4255 117.774 94.3911 118.802 95.2075C123.433 98.8446 127.695 102.608 131.826 106.719V113.114C129.375 112.405 126.881 111.729 124.407 111.11V104.41L124.181 104.365C122.002 103.94 119.783 103.535 117.584 103.163L117.255 103.107V110.874C117.255 112.872 118.661 114.266 121.44 115.012C125.847 116.191 130.265 117.545 134.566 119.038C135.368 119.319 136.051 119.46 136.624 119.46C137.159 119.46 137.599 119.336 137.95 119.088C138.551 118.666 138.857 117.886 138.857 116.774V107.901C138.857 106.564 138.358 105.376 137.372 104.368C133.252 100.14 129.009 96.2829 124.405 92.5782V87.0746C126.89 87.2041 129.364 87.342 131.823 87.4884V94.0899L132.073 94.118V94.1152ZM48.5734 38.8093C48.4714 40.2619 48.3722 43.9863 48.2702 45.4389C48.1596 47.0182 49.5227 48.0654 51.3193 47.8205C58.3838 46.8549 65.1962 46.3623 71.9972 46.3313C78.801 46.3623 85.6105 46.8549 92.6751 47.8205C94.4717 48.0654 95.8347 47.0182 95.7242 45.4389C95.6222 43.9863 95.523 40.2619 95.4238 38.8093C95.3955 38.4039 96.6593 37.6354 96.631 37.23C96.2824 32.1966 95.9339 28.8409 95.5882 23.9426C95.5627 23.5767 95.285 23.2754 94.9194 23.2191C94.1713 23.1037 93.4232 22.9996 92.6722 22.8954C92.4427 20.1929 91.7144 17.7325 90.5809 15.5592C87.1804 9.03655 80.1385 5.11226 71.9972 5.11226C61.1439 5.11226 52.2402 12.0881 51.3221 22.8954C50.574 22.9996 49.823 23.1037 49.0749 23.2191C48.7094 23.2754 48.4345 23.5767 48.4062 23.9426C48.0576 28.8409 47.7119 32.1966 47.3633 37.23C47.335 37.6354 48.5989 38.4039 48.5705 38.8093H48.5734ZM93.8567 28.1625C94.2421 28.1625 94.5538 28.4862 94.5538 28.8832C94.5538 29.2801 94.2421 29.6038 93.8567 29.6038C93.4713 29.6038 93.1596 29.2801 93.1596 28.8832C93.1596 28.4862 93.4713 28.1625 93.8567 28.1625ZM93.8567 32.4893C94.2421 32.4893 94.5538 32.8131 94.5538 33.21C94.5538 33.6069 94.2421 33.9307 93.8567 33.9307C93.4713 33.9307 93.1596 33.6069 93.1596 33.21C93.1596 32.8131 93.4713 32.4893 93.8567 32.4893ZM55.3262 22.1212C58.2138 21.2373 61.0844 20.7109 63.9521 20.359C65.386 20.1563 66.8171 20.0775 68.2509 19.9649C69.4921 19.9001 70.7305 19.8748 71.9688 19.8579C73.2072 19.8748 74.4484 19.9001 75.6867 19.9649C77.1178 20.0775 78.5516 20.1563 79.9855 20.359C82.8533 20.7109 85.7239 21.2373 88.6115 22.1212C88.6115 22.1747 88.6171 22.2282 88.62 22.2817C83.0885 21.6962 77.5287 21.4175 71.9688 21.4428C66.409 21.4175 60.8492 21.6933 55.3177 22.2817C55.3177 22.2282 55.3234 22.1747 55.3262 22.1212ZM52.5038 25.6289C58.9647 24.8012 65.4682 24.3874 71.9688 24.3874C78.4695 24.3874 84.9729 24.8012 91.4339 25.6289C91.6237 28.9733 91.8136 32.3204 92.0006 35.6648C85.3498 34.8118 78.6593 34.3867 71.9688 34.3867C65.2783 34.3867 58.585 34.8118 51.937 35.6648C52.1269 32.3204 52.3168 28.9733 52.5038 25.6289ZM71.9688 37.2328C79.1439 37.2525 86.319 37.7564 93.443 38.7502C93.443 38.7896 93.4487 38.829 93.4515 38.8712C89.8441 38.798 86.1999 39.0317 82.5444 38.9388C80.7166 38.9106 78.886 38.8403 77.0526 38.8374C75.358 38.8149 73.6634 38.7952 71.9688 38.8121C70.2742 38.7952 68.5797 38.8121 66.8851 38.8374C65.0516 38.8403 63.221 38.9106 61.3933 38.9388C57.7377 39.0345 54.0935 38.798 50.4861 38.8712C50.4861 38.8318 50.4918 38.7924 50.4946 38.7502C57.6215 37.7564 64.7966 37.2525 71.9688 37.2328ZM50.0809 28.1625C50.4663 28.1625 50.778 28.4862 50.778 28.8832C50.778 29.2801 50.4663 29.6038 50.0809 29.6038C49.6955 29.6038 49.3838 29.2801 49.3838 28.8832C49.3838 28.4862 49.6955 28.1625 50.0809 28.1625ZM50.0809 32.4893C50.4663 32.4893 50.778 32.8131 50.778 33.21C50.778 33.6069 50.4663 33.9307 50.0809 33.9307C49.6955 33.9307 49.3838 33.6069 49.3838 33.21C49.3838 32.8131 49.6955 32.4893 50.0809 32.4893ZM67.8174 130.875H68.2736V130.18H67.8174V130.875ZM64.4962 123.302C64.4962 122.624 64.1788 122.078 63.6631 121.948V121.915C64.1788 121.782 64.4962 121.253 64.4962 120.575V118.03C64.4962 116.988 63.7821 116.279 62.7336 116.279H57.8426V127.849H62.7336C63.7821 127.849 64.4962 127.139 64.4962 126.098V123.302ZM61.9997 125.484C61.9997 125.518 61.9827 125.535 61.9487 125.535H60.3334V123.021H61.9487C61.9827 123.021 61.9997 123.038 61.9997 123.072V125.484ZM61.9997 120.822C61.9997 120.856 61.9827 120.873 61.9487 120.873H60.3334V118.593H61.9487C61.9827 118.593 61.9997 118.61 61.9997 118.643V120.825V120.822ZM76.16 122.145L76.211 122.444L77.574 127.849H78.5233L79.9033 122.444L79.9543 122.145V127.849H82.3659V116.279H79.4868L78.0557 122.013L76.6247 116.279H73.7456V127.849H76.1571V122.145H76.16ZM67.5567 127.88H70.6851C71.7336 127.88 72.4477 127.168 72.4477 126.129V121.236H68.9027V123.55H69.9512V125.484C69.9512 125.518 69.9342 125.535 69.9002 125.535H68.336C68.3019 125.535 68.285 125.518 68.285 125.484V118.641C68.285 118.607 68.3019 118.59 68.336 118.59H69.9002C69.9342 118.59 69.9512 118.607 69.9512 118.641V119.995H72.4477V117.996C72.4477 116.954 71.7336 116.245 70.6851 116.245H67.5567C66.5082 116.245 65.7941 116.954 65.7941 117.996V126.129C65.7941 127.17 66.5082 127.88 67.5567 127.88ZM86.1603 116.276H83.6637V127.846H86.1603V116.276ZM86.1603 128.741H57.8397V132.975H86.1603V128.741ZM66.1511 131.993L66.1568 131.883L65.7459 131.038H65.6722V131.86L65.7402 131.996H65.148L65.216 131.86V129.864L65.148 129.729H65.7402L65.6722 129.864V130.585H65.7516L66.1568 129.836L66.1511 129.729H66.7434L66.6329 129.867L66.1398 130.751L66.6725 131.818L66.8114 131.993H66.1511ZM68.1574 131.993L68.1659 131.846L67.9761 131.328H67.8145V131.858L67.8826 131.993H67.2903L67.3583 131.858V129.862L67.2903 129.727H68.4068L68.727 130.045V131.013L68.4465 131.292L68.6533 131.821L68.7752 131.993H68.1574ZM70.5066 131.993L70.5321 131.827L70.4754 131.604H69.8549L69.7982 131.827L69.8237 131.993H69.2541L69.3108 131.869L69.8492 129.859L69.7982 129.727H70.5293L70.4783 129.859L71.0167 131.869L71.0734 131.993H70.5038H70.5066ZM72.938 130.247L72.802 130.18H72.1162V130.639H72.5724L72.7084 130.571V131.162L72.5724 131.095H72.1162V131.86L72.1842 131.996H71.5919L71.66 131.86V129.864L71.5919 129.729H72.938V130.25V130.247ZM74.8791 130.247L74.7431 130.18H74.3775V131.858L74.4455 131.993H73.8533L73.9213 131.858V130.18H73.5586L73.4225 130.247V129.727H74.8819V130.247H74.8791ZM76.7749 131.675L76.4547 131.993H75.6782L75.358 131.675V130.042L75.6782 129.724H76.4547L76.7749 130.042V131.675ZM78.852 131.993H78.3051L77.8262 130.774V131.858L77.8942 131.993H77.302L77.37 131.858V129.862L77.302 129.727H77.8489L78.3278 130.945V129.862L78.2598 129.727H78.852L78.784 129.862V131.858L78.852 131.993ZM70.3621 131.168L70.1637 130.416L69.9654 131.168H70.3621ZM89.847 135.658V113.599C89.847 113.112 89.4502 112.718 88.96 112.718H55.0343C54.5469 112.718 54.1474 113.112 54.1474 113.599V135.658C54.1474 136.145 54.5441 136.539 55.0343 136.539H88.96C89.4474 136.539 89.847 136.145 89.847 135.658ZM88.0929 134.794H55.9071V114.46H88.0929V134.794ZM75.8171 131.539H76.3186V130.18H75.8171V131.539ZM96.5715 50.7623L96.2541 50.8045C94.0324 51.0889 91.7711 51.3366 89.5324 51.5421L89.2746 51.5646V78.9051H89.5579C91.8051 78.891 94.0494 78.8741 96.2909 78.8572H96.5715V50.7623ZM81.9833 53.4564C80.3907 52.6344 78.2541 52.2656 75.4628 52.3106C70.8948 52.3923 66.2645 52.3106 61.6965 52.0657L61.3989 52.0516V78.9333H61.6795C65.1083 78.9445 68.54 78.953 71.9745 78.953C73.1392 78.953 74.3038 78.953 75.4657 78.953C78.1861 78.953 80.3794 78.4913 81.989 77.5848C83.6552 76.6474 84.4997 75.3299 84.4997 73.6718V57.2484C84.4997 55.5931 83.6524 54.3178 81.9805 53.4592L81.9833 53.4564ZM77.1206 73.0919C77.1206 74.384 75.8256 75.0399 73.2695 75.0456C71.745 75.0456 70.2204 75.0456 68.6958 75.0399V56.2237C70.2601 56.2462 71.8555 56.2546 73.4452 56.2434C75.086 56.2293 76.1713 56.4939 76.7097 57.0231C76.9874 57.2962 77.1206 57.6425 77.1206 58.0873V73.0919ZM106.773 78.7531H106.991L107.042 78.5391C107.473 76.7656 107.904 74.978 108.334 73.1763C110.944 73.0553 113.591 72.9173 116.209 72.7681C116.634 74.6233 117.06 76.4982 117.485 78.3871L117.533 78.6095H117.762C119.947 78.5729 122.126 78.5363 124.294 78.4969L124.651 78.4913L124.563 78.1478C121.854 67.639 119.077 57.5918 116.079 47.4376L116.003 47.1815L115.742 47.2434C113.441 47.7839 111.097 48.2906 108.765 48.7467L108.595 48.7805L108.55 48.9466C105.824 58.7488 102.993 68.3794 99.8926 78.3871L99.8785 78.8235H100.165C102.372 78.8009 104.574 78.7784 106.773 78.7531ZM112.242 56.4911C113.217 60.4238 114.18 64.3988 115.116 68.3259C113.177 68.4863 111.233 68.6384 109.326 68.7735C110.307 64.7197 111.287 60.5955 112.242 56.4883V56.4911ZM77.8375 142.183V140.266C77.8375 139.667 77.5343 139.368 76.9279 139.368H74.0063C73.3999 139.368 73.0967 139.667 73.0967 140.266V142.468H74.5532V140.627H76.3668V142.454L72.9947 148.346V149.263H77.8262V147.969H74.7771L77.5145 143.219C77.7299 142.839 77.8404 142.493 77.8404 142.183H77.8375ZM67.0664 139.371C66.4628 139.371 66.1625 139.675 66.1625 140.28V148.363C66.1625 148.965 66.4572 149.266 67.0466 149.266H70.1524C70.7503 149.266 71.0507 148.965 71.0507 148.363V140.28C71.0507 139.672 70.7503 139.371 70.1524 139.371H67.0664ZM69.5913 147.997H67.6247V140.644H69.5913V147.997ZM64.1788 142.183V140.266C64.1788 139.667 63.8756 139.368 63.2692 139.368H60.3476C59.7412 139.368 59.438 139.667 59.438 140.266V142.468H60.8945V140.627H62.7081V142.454L59.336 148.346V149.263H64.1675V147.969H61.1184L63.8558 143.219C64.0712 142.839 64.1817 142.493 64.1817 142.183H64.1788ZM84.1058 149.292V147.425H84.8624V146.167H84.1058V143.188H82.6861V146.167H81.0822L83.4059 139.453V139.396H81.8898L79.4131 146.547V147.425H82.6833V149.292H84.1058Z" fill="white"/>
</g>
</svg>

